<svg width="32" height="32" viewBox="0 0 32 32" fill="none" xmlns="http://www.w3.org/2000/svg">
<path d="M26.5 23C26.6326 23 26.7598 22.9473 26.8536 22.8536C26.9473 22.7598 27 22.6326 27 22.5V6.5C27 6.36739 26.9473 6.24021 26.8536 6.14645C26.7598 6.05268 26.6326 6 26.5 6H23V18.998C23 20.0589 22.5786 21.0763 21.8284 21.8264C21.0783 22.5766 20.0609 22.998 19 22.998H16V23H17.1631C17.4911 23.0007 17.8099 23.1082 18.0713 23.3062L22.9971 26.9971L23 23.6995C23 23.5138 23.0737 23.3358 23.205 23.2045C23.3363 23.0732 23.5143 22.9995 23.7 22.9995L26.5 23Z" fill="#E7E7E7"/>
<path d="M26.5 5H4.5C4.10231 5.00042 3.72102 5.15859 3.43981 5.43981C3.15859 5.72102 3.00042 6.10231 3 6.5V22.5C3.00042 22.8977 3.15859 23.279 3.43981 23.5602C3.72102 23.8414 4.10231 23.9996 4.5 24H17.1631C17.2736 24.0005 17.3809 24.037 17.4688 24.104L22.3946 27.7949C22.5429 27.9077 22.7197 27.9768 22.9051 27.9945C23.0906 28.0121 23.2773 27.9777 23.4442 27.8949C23.6111 27.8122 23.7515 27.6845 23.8498 27.5262C23.948 27.3679 24 27.1853 24 26.999V24H26.5C26.8977 23.9996 27.279 23.8414 27.5602 23.5602C27.8414 23.279 27.9996 22.8977 28 22.5V6.5C27.9996 6.10231 27.8414 5.72102 27.5602 5.43981C27.279 5.15859 26.8977 5.00042 26.5 5ZM27 22.5C26.9998 22.6326 26.9471 22.7596 26.8533 22.8533C26.7596 22.9471 26.6326 22.9998 26.5 23H23.7C23.5144 23.0003 23.3366 23.0741 23.2053 23.2053C23.0741 23.3366 23.0003 23.5144 23 23.7L22.9971 26.9969L18.0713 23.306C17.8098 23.108 17.4911 23.0005 17.1631 22.9998H4.5C4.36745 22.9996 4.24038 22.9469 4.14665 22.8531C4.05292 22.7594 4.00019 22.6324 4 22.4998V6.4998C4.00019 6.36725 4.05292 6.24018 4.14665 6.14645C4.24038 6.05272 4.36745 5.99999 4.5 5.9998H26.5C26.6326 5.99999 26.7596 6.05272 26.8533 6.14645C26.9471 6.24018 26.9998 6.36725 27 6.4998V22.5Z" fill="#4D4D4D" stroke="#4D4D4D" stroke-width="0.5"/>
</svg>
