<svg width="32" height="32" viewBox="0 0 32 32" fill="none" xmlns="http://www.w3.org/2000/svg">
<path d="M26.0548 5.22528V23.6042H5.22528V21.1537L22.2039 20.016V5.22528H26.0548Z" fill="#D3ECC6"/>
<path d="M25.4421 4H5.83793C5.35049 4 4.88301 4.19363 4.53834 4.53831C4.19367 4.88298 4.00003 5.35045 4.00003 5.83789V22.9916C4.00003 23.479 4.19367 23.9465 4.53834 24.2912C4.88301 24.6358 5.35049 24.8295 5.83793 24.8295H25.4421C25.9296 24.8295 26.3971 24.6358 26.7417 24.2912C27.0864 23.9465 27.28 23.479 27.28 22.9916V5.83789C27.28 5.35045 27.0864 4.88298 26.7417 4.53831C26.3971 4.19363 25.9296 4 25.4421 4ZM26.0548 22.9916C26.0548 23.1541 25.9902 23.3099 25.8753 23.4248C25.7604 23.5397 25.6046 23.6042 25.4421 23.6042H5.83793C5.67545 23.6042 5.51962 23.5397 5.40473 23.4248C5.28984 23.3099 5.22529 23.1541 5.22529 22.9916V5.83789C5.22529 5.67541 5.28984 5.51959 5.40473 5.4047C5.51962 5.28981 5.67545 5.22526 5.83793 5.22526H25.4421C25.6046 5.22526 25.7604 5.28981 25.8753 5.4047C25.9902 5.51959 26.0548 5.67541 26.0548 5.83789V22.9916Z" fill="#6FBE49" stroke="#6FBE49" stroke-width="0.5"/>
<path d="M23.6042 27.8926C23.6042 27.7302 23.5397 27.5743 23.4248 27.4594C23.3099 27.3445 23.1541 27.28 22.9916 27.28L8.28843 27.28C8.12595 27.28 7.97012 27.3445 7.85523 27.4594C7.74034 27.5743 7.6758 27.7302 7.6758 27.8926C7.6758 28.0551 7.74034 28.2109 7.85523 28.3258C7.97012 28.4407 8.12595 28.5053 8.28843 28.5053L22.9916 28.5053C23.1541 28.5053 23.3099 28.4407 23.4248 28.3258C23.5397 28.2109 23.6042 28.0551 23.6042 27.8926Z" fill="#6FBE49" stroke="#6FBE49" stroke-width="0.5"/>
<mask id="path-6-inside-1" fill="white">
<path fill-rule="evenodd" clip-rule="evenodd" d="M19.0483 13.9788L13.1343 10.2314C13.0754 10.1939 13.0076 10.1728 12.9378 10.1703C12.8681 10.1679 12.7989 10.1842 12.7376 10.2175C12.6762 10.2509 12.6249 10.3 12.589 10.3599C12.5531 10.4198 12.534 10.4882 12.5334 10.558V18.0523C12.534 18.1221 12.5531 18.1905 12.589 18.2504C12.6249 18.3103 12.6762 18.3594 12.7376 18.3928C12.7989 18.4261 12.8681 18.4424 12.9378 18.44C13.0076 18.4375 13.0754 18.4164 13.1343 18.3789L19.0484 14.6315C19.1036 14.5968 19.1491 14.5486 19.1806 14.4916C19.2121 14.4345 19.2286 14.3703 19.2286 14.3051C19.2286 14.2399 19.2121 14.1758 19.1806 14.1187C19.149 14.0617 19.1035 14.0135 19.0483 13.9788Z"/>
</mask>
<path fill-rule="evenodd" clip-rule="evenodd" d="M19.0483 13.9788L13.1343 10.2314C13.0754 10.1939 13.0076 10.1728 12.9378 10.1703C12.8681 10.1679 12.7989 10.1842 12.7376 10.2175C12.6762 10.2509 12.6249 10.3 12.589 10.3599C12.5531 10.4198 12.534 10.4882 12.5334 10.558V18.0523C12.534 18.1221 12.5531 18.1905 12.589 18.2504C12.6249 18.3103 12.6762 18.3594 12.7376 18.3928C12.7989 18.4261 12.8681 18.4424 12.9378 18.44C13.0076 18.4375 13.0754 18.4164 13.1343 18.3789L19.0484 14.6315C19.1036 14.5968 19.1491 14.5486 19.1806 14.4916C19.2121 14.4345 19.2286 14.3703 19.2286 14.3051C19.2286 14.2399 19.2121 14.1758 19.1806 14.1187C19.149 14.0617 19.1035 14.0135 19.0483 13.9788Z" fill="#6FBE49"/>
<path d="M13.1343 10.2314L12.5963 11.0744L12.599 11.0761L13.1343 10.2314ZM12.5334 10.558L11.5334 10.5508V10.558H12.5334ZM12.5334 18.0523H11.5334L11.5335 18.0595L12.5334 18.0523ZM13.1343 18.3789L12.599 17.5342L12.5964 17.5359L13.1343 18.3789ZM19.0484 14.6315L18.516 13.785L18.5131 13.7868L19.0484 14.6315ZM19.5836 13.1341L13.6695 9.38674L12.599 11.0761L18.5131 14.8235L19.5836 13.1341ZM13.6722 9.38846C13.4627 9.25478 13.2213 9.17968 12.9729 9.17096L12.9027 11.1697C12.7939 11.1659 12.6881 11.133 12.5964 11.0744L13.6722 9.38846ZM12.9729 9.17096C12.7246 9.16224 12.4784 9.22023 12.2601 9.33889L13.2151 11.0962C13.1194 11.1481 13.0116 11.1735 12.9027 11.1697L12.9729 9.17096ZM12.2601 9.33889C12.0417 9.45755 11.8592 9.63254 11.7314 9.84567L13.4467 10.8741C13.3907 10.9675 13.3107 11.0442 13.2151 11.0962L12.2601 9.33889ZM11.7314 9.84567C11.6036 10.0588 11.5353 10.3023 11.5335 10.5508L13.5334 10.5652C13.5326 10.6741 13.5027 10.7807 13.4467 10.8741L11.7314 9.84567ZM11.5334 10.558V18.0523H13.5334V10.558H11.5334ZM11.5335 18.0595C11.5353 18.308 11.6036 18.5515 11.7314 18.7646L13.4467 17.7362C13.5027 17.8296 13.5326 17.9363 13.5334 18.0451L11.5335 18.0595ZM11.7314 18.7646C11.8592 18.9778 12.0417 19.1528 12.2601 19.2714L13.2151 17.5142C13.3107 17.5661 13.3907 17.6428 13.4467 17.7362L11.7314 18.7646ZM12.2601 19.2714C12.4784 19.3901 12.7246 19.4481 12.9729 19.4393L12.9027 17.4406C13.0116 17.4368 13.1194 17.4622 13.2151 17.5142L12.2601 19.2714ZM12.9729 19.4393C13.2213 19.4306 13.4627 19.3555 13.6722 19.2218L12.5964 17.5359C12.6881 17.4773 12.7939 17.4444 12.9027 17.4406L12.9729 19.4393ZM13.6695 19.2236L19.5836 15.4762L18.5131 13.7868L12.599 17.5342L13.6695 19.2236ZM19.5807 15.478C19.7791 15.3532 19.9426 15.1802 20.0559 14.9751L18.3053 14.008C18.3555 13.9171 18.428 13.8403 18.516 13.785L19.5807 15.478ZM20.0559 14.9751C20.1692 14.7699 20.2287 14.5394 20.2286 14.3051L18.2286 14.3052C18.2286 14.2013 18.255 14.099 18.3053 14.008L20.0559 14.9751ZM20.2286 14.3051C20.2286 14.0707 20.1692 13.8402 20.0558 13.6351L18.3053 14.6024C18.255 14.5114 18.2287 14.4091 18.2286 14.3052L20.2286 14.3051ZM20.0558 13.6351C19.9425 13.43 19.779 13.257 19.5806 13.1322L18.5161 14.8254C18.4281 14.7701 18.3556 14.6933 18.3053 14.6024L20.0558 13.6351Z" fill="#6FBE49" mask="url(#path-6-inside-1)"/>
</svg>
